<mxfile host="app.diagrams.net" modified="2023-05-18T07:14:11.950Z" agent="Mozilla/5.0 (Linux; Android 9) AppleWebKit/537.36 (KHTML, like Gecko) YaBrowser/23.3.4.603 YaBrowser/23.3.4.603 Yowser/2.5 Mobile Safari/537.36" etag="wqKeN694jivDGt44MCeB" version="21.3.2" type="github">
  <diagram name="Страница 1" id="uxWOsyEfU2r70jMS017q">
    <mxGraphModel dx="1132" dy="874" grid="0" gridSize="10" guides="1" tooltips="1" connect="1" arrows="1" fold="1" page="0" pageScale="1" pageWidth="827" pageHeight="1169" math="0" shadow="0">
      <root>
        <mxCell id="0" />
        <mxCell id="1" parent="0" />
        <mxCell id="PlK3aGXqDywmeAIuR_eo-16" value="" style="edgeStyle=none;curved=1;rounded=0;orthogonalLoop=1;jettySize=auto;html=1;fontSize=12;startSize=8;endSize=8;" edge="1" parent="1" source="PlK3aGXqDywmeAIuR_eo-1">
          <mxGeometry relative="1" as="geometry">
            <mxPoint x="6.000000000000114" y="29" as="targetPoint" />
          </mxGeometry>
        </mxCell>
        <mxCell id="PlK3aGXqDywmeAIuR_eo-1" value="Start" style="rounded=1;whiteSpace=wrap;html=1;fontSize=16;" vertex="1" parent="1">
          <mxGeometry x="-54" y="-53" width="120" height="60" as="geometry" />
        </mxCell>
        <mxCell id="PlK3aGXqDywmeAIuR_eo-18" value="" style="edgeStyle=none;curved=1;rounded=0;orthogonalLoop=1;jettySize=auto;html=1;fontSize=12;startSize=8;endSize=8;" edge="1" parent="1" source="PlK3aGXqDywmeAIuR_eo-6" target="PlK3aGXqDywmeAIuR_eo-12">
          <mxGeometry relative="1" as="geometry" />
        </mxCell>
        <mxCell id="PlK3aGXqDywmeAIuR_eo-6" value="User Name&amp;nbsp;" style="shape=parallelogram;perimeter=parallelogramPerimeter;whiteSpace=wrap;html=1;fixedSize=1;fontSize=16;" vertex="1" parent="1">
          <mxGeometry x="-76.5" y="128" width="165" height="36" as="geometry" />
        </mxCell>
        <mxCell id="PlK3aGXqDywmeAIuR_eo-10" value="end" style="rounded=1;whiteSpace=wrap;html=1;fontSize=16;" vertex="1" parent="1">
          <mxGeometry x="-54" y="291" width="120" height="60" as="geometry" />
        </mxCell>
        <mxCell id="PlK3aGXqDywmeAIuR_eo-13" value="" style="edgeStyle=none;curved=1;rounded=0;orthogonalLoop=1;jettySize=auto;html=1;fontSize=12;startSize=8;endSize=8;exitX=0.502;exitY=0.86;exitDx=0;exitDy=0;exitPerimeter=0;" edge="1" parent="1" source="PlK3aGXqDywmeAIuR_eo-12" target="PlK3aGXqDywmeAIuR_eo-10">
          <mxGeometry relative="1" as="geometry" />
        </mxCell>
        <mxCell id="PlK3aGXqDywmeAIuR_eo-12" value="Hello &quot;User Name&quot;" style="shape=document;whiteSpace=wrap;html=1;boundedLbl=1;fontSize=16;" vertex="1" parent="1">
          <mxGeometry x="-64.5" y="189" width="141" height="80" as="geometry" />
        </mxCell>
        <mxCell id="PlK3aGXqDywmeAIuR_eo-17" value="" style="edgeStyle=none;curved=1;rounded=0;orthogonalLoop=1;jettySize=auto;html=1;fontSize=12;startSize=8;endSize=8;entryX=0.5;entryY=0;entryDx=0;entryDy=0;exitX=0.497;exitY=0.844;exitDx=0;exitDy=0;exitPerimeter=0;" edge="1" parent="1" source="PlK3aGXqDywmeAIuR_eo-19" target="PlK3aGXqDywmeAIuR_eo-6">
          <mxGeometry relative="1" as="geometry">
            <mxPoint x="3" y="106" as="sourcePoint" />
          </mxGeometry>
        </mxCell>
        <mxCell id="PlK3aGXqDywmeAIuR_eo-19" value="Enter your name" style="shape=document;whiteSpace=wrap;html=1;boundedLbl=1;fontSize=16;" vertex="1" parent="1">
          <mxGeometry x="-64.5" y="30" width="141" height="80" as="geometry" />
        </mxCell>
      </root>
    </mxGraphModel>
  </diagram>
</mxfile>
